<svg width="20" height="21" viewBox="0 0 20 21" fill="none" xmlns="http://www.w3.org/2000/svg">
    <path d="M10 1.97839C14.9976 1.97839 18.9998 5.90821 19 10.6962C19 15.4843 14.9977 19.4149 10 19.4149C5.00229 19.4149 1 15.4843 1 10.6962C1.00017 5.90821 5.00239 1.97839 10 1.97839Z" stroke="#474747" stroke-width="2"/>
    <path d="M10 4.37976V5.83747V6.80928M10 6.80928H10.7177C11.198 6.80928 11.6381 7.07778 11.8579 7.50495V7.50495C11.9513 7.68642 12 7.88755 12 8.09163V8.26699V8.75289M10 6.80928H8.69721C8.25011 6.80928 7.82063 6.98359 7.5 7.29518V7.29518L7.34846 7.44245C7.12569 7.65894 7 7.95636 7 8.26699V8.26699V8.75289V8.75289C7 9.06353 7.12569 9.36095 7.34846 9.57744L7.5 9.7247L7.67205 9.89191C7.88929 10.103 8.13885 10.2781 8.41131 10.4105L8.55028 10.478C8.84623 10.6218 9.17097 10.6965 9.5 10.6965V10.6965M10 10.6965H9.5M9.5 10.6965H10.3455C10.7762 10.6965 11.2013 10.7943 11.5887 10.9826L11.8272 11.0984C11.9417 11.1541 12.0465 11.2276 12.1378 11.3163V11.3163C12.3693 11.5413 12.5 11.8505 12.5 12.1734V12.6401V12.6401C12.5 13.2614 12.2486 13.8562 11.8031 14.2892L11.5 14.5837V14.5837C11.1794 14.8953 10.7499 15.0696 10.3028 15.0696H10M10 15.0696H9.47959C8.85141 15.0696 8.24799 14.8247 7.7975 14.3869V14.3869M10 15.0696V17.0133M7.5 14.0978L7.7975 14.3869M7 13.126L7.7975 14.3869" stroke="#474747" stroke-width="2"/>
</svg>
