<svg  fill="none">
    <path d="M24.4999 8.36813L30.5857 2.45391C31.3667 1.69489 32.6331 1.69489 33.4141 2.45391L36.6713 5.61929C37.4181 6.34503 37.4555 7.50997 36.7568 8.27957L30.9687 14.6546M24.4999 8.36813L3.81051 28.4742C3.60588 28.6731 3.44809 28.9127 3.34804 29.1767L1.34955 34.4482C0.786008 35.9347 2.19088 37.4168 3.76153 36.9928L8.50509 35.7123C8.8297 35.6247 9.12627 35.4588 9.36728 35.2301L30.4999 15.1708L30.9687 14.6546M24.4999 8.36813L30.9687 14.6546" stroke="#FF5858" stroke-width="2"/>
    <path d="M28 38.0083C32.4183 38.0083 36 34.5275 36 30.2338C36 25.9401 32.4183 22.4594 28 22.4594C23.5817 22.4594 20 25.9401 20 30.2338C20 34.5275 23.5817 38.0083 28 38.0083Z" stroke="#FF5858" stroke-width="2"/>
    <path d="M24.5 28.7761C23.6716 28.7761 23 29.4287 23 30.2338C23 31.0389 23.6716 31.6915 24.5 31.6915H31.5C32.3284 31.6915 33 31.0389 33 30.2338C33 29.4287 32.3284 28.7761 31.5 28.7761H24.5Z" fill="#FF5858"/>
</svg>
