<svg width="45" height="41" viewBox="0 0 45 41" fill="none" xmlns="http://www.w3.org/2000/svg">
<path d="M9.04637 21.7122C5.66684 18.2873 5.66684 12.7343 9.04637 9.30938C12.4259 5.88442 17.9052 5.88442 21.2847 9.30938L29.8424 17.982C32.546 20.722 32.546 25.1643 29.8424 27.9043L24.947 32.8656C23.5952 34.2355 21.4035 34.2355 20.0516 32.8656L9.04637 21.7122Z" fill="#FF5858"/>
<path d="M24.9498 32.8666C23.598 34.2365 21.4062 34.2365 20.0544 32.8666L15.1591 27.9053C12.4554 25.1654 12.4554 20.723 15.1591 17.983L23.7259 9.30099C27.1055 5.87603 32.5848 5.87603 35.9644 9.30099C39.3439 12.7259 39.3439 18.2789 35.9644 21.7039L24.9498 32.8666Z" fill="#FF5858"/>
</svg>
