<svg width="31" height="29" viewBox="0 0 31 29" fill="none" xmlns="http://www.w3.org/2000/svg">
<path d="M6.23193 15.2781C3.90381 12.9187 3.90381 9.09333 6.23193 6.73392C8.56006 4.3745 12.3347 4.3745 14.6628 6.73392L20.5581 12.7084C22.4206 14.5959 22.4206 17.6562 20.5581 19.5437L17.1857 22.9615C16.2544 23.9052 14.7446 23.9052 13.8133 22.9615L6.23193 15.2781Z" fill="white"/>
<path d="M17.1875 22.961C16.2562 23.9048 14.7464 23.9048 13.8151 22.961L10.4428 19.5433C8.58027 17.6558 8.58027 14.5955 10.4428 12.7079L16.3444 6.72699C18.6725 4.36757 22.4471 4.36757 24.7753 6.72699C27.1034 9.08641 27.1034 12.9118 24.7753 15.2712L17.1875 22.961Z" fill="white"/>
</svg>
