<svg width="39" height="39" viewBox="0 0 39 39" fill="none" xmlns="http://www.w3.org/2000/svg">
    <path d="M24.4999 8.33993L30.5857 2.42571C31.3667 1.66669 32.6331 1.66669 33.4141 2.42571L36.6713 5.59109C37.4181 6.31683 37.4555 7.48177 36.7568 8.25137L30.9687 14.6264M24.4999 8.33993L3.81051 28.446C3.60588 28.6449 3.44809 28.8845 3.34804 29.1485L1.34955 34.42C0.786008 35.9065 2.19088 37.3886 3.76153 36.9646L8.50509 35.6841C8.8297 35.5965 9.12627 35.4306 9.36728 35.2019L30.4999 15.1426L30.9687 14.6264M24.4999 8.33993L30.9687 14.6264" stroke="#FF5858" stroke-width="2"/>
    <path d="M28 37.9801C32.4183 37.9801 36 34.4993 36 30.2056C36 25.9119 32.4183 22.4312 28 22.4312C23.5817 22.4312 20 25.9119 20 30.2056C20 34.4993 23.5817 37.9801 28 37.9801Z" stroke="#FF5858" stroke-width="2"/>
    <path d="M29.5 26.8043C29.5 25.9992 28.8284 25.3466 28 25.3466C27.1716 25.3466 26.5 25.9992 26.5 26.8043V33.6069C26.5 34.412 27.1716 35.0646 28 35.0646C28.8284 35.0646 29.5 34.412 29.5 33.6069V26.8043Z" fill="#FF5858"/>
    <path d="M24.5 28.7479C23.6716 28.7479 23 29.4005 23 30.2056C23 31.0107 23.6716 31.6633 24.5 31.6633H31.5C32.3284 31.6633 33 31.0107 33 30.2056C33 29.4005 32.3284 28.7479 31.5 28.7479H24.5Z" fill="#FF5858"/>
</svg>
