<svg width="24" height="27" viewBox="0 0 24 27" fill="none" xmlns="http://www.w3.org/2000/svg">
<path d="M4.23535 4.26319V22.7369C4.23535 24.3066 5.49949 25.579 7.05888 25.579H19.7648C21.3242 25.579 22.5883 24.3066 22.5883 22.7369V8.80828C22.5883 7.95532 22.2077 7.14745 21.5516 6.60767L16.0268 2.06257C15.5226 1.64771 14.8914 1.42108 14.2401 1.42108H7.05888C5.49949 1.42108 4.23535 2.69353 4.23535 4.26319Z" fill="white" stroke="#FF0000"/>
<path d="M11.2941 12.7895H2.82353C1.26414 12.7895 0 14.0619 0 15.6316V18.4737C0 20.0434 1.26414 21.3158 2.82353 21.3158H11.2941C12.8535 21.3158 14.1176 20.0434 14.1176 18.4737V15.6316C14.1176 14.0619 12.8535 12.7895 11.2941 12.7895Z" fill="#FF0000"/>
<path d="M3.17627 18.4737V15.3732H4.3915C4.62514 15.3732 4.82417 15.4181 4.98861 15.5079C5.15304 15.5968 5.27837 15.7204 5.3646 15.8788C5.45184 16.0363 5.49546 16.2179 5.49546 16.4238C5.49546 16.6297 5.45134 16.8115 5.36311 16.9689C5.27487 17.1262 5.14702 17.2489 4.97957 17.3367C4.81314 17.4245 4.6116 17.4684 4.37497 17.4684H3.60041V16.9431H4.26968C4.39502 16.9431 4.49829 16.9215 4.57951 16.878C4.66173 16.8336 4.72289 16.7725 4.76299 16.6948C4.8041 16.6161 4.82466 16.5258 4.82466 16.4238C4.82466 16.3209 4.8041 16.2311 4.76299 16.1544C4.72289 16.0767 4.66173 16.0167 4.57951 15.9742C4.49729 15.9309 4.39301 15.9091 4.26667 15.9091H3.8275V18.4737H3.17627ZM7.01037 18.4737H5.91845V15.3732H7.01939C7.32922 15.3732 7.59593 15.4353 7.81952 15.5594C8.04312 15.6826 8.21508 15.8597 8.33541 16.0909C8.45672 16.3219 8.51738 16.5985 8.51738 16.9205C8.51738 17.2433 8.45672 17.5209 8.33541 17.7531C8.21508 17.9851 8.04211 18.1633 7.81651 18.2875C7.59192 18.4116 7.3232 18.4737 7.01037 18.4737ZM6.56969 17.9121H6.98329C7.17581 17.9121 7.33774 17.8777 7.46909 17.8091C7.60145 17.7394 7.70071 17.632 7.76689 17.4866C7.83406 17.3403 7.86765 17.1515 7.86765 16.9205C7.86765 16.6913 7.83406 16.5041 7.76689 16.3587C7.70071 16.2134 7.60194 16.1065 7.47059 16.0379C7.33924 15.9692 7.17731 15.9348 6.9848 15.9348H6.56969V17.9121ZM8.9998 18.4737V15.3732H11.0392V15.9137H9.65103V16.6525H10.9039V17.1929H9.65103V18.4737H8.9998Z" fill="white"/>
</svg>
