<svg width="32" height="32" viewBox="0 0 32 32" fill="none" xmlns="http://www.w3.org/2000/svg">
<path d="M29.9998 15.6667C31.1044 15.6667 32.013 14.7677 31.8724 13.6721C31.6962 12.3001 31.3389 10.9546 30.8073 9.67129C30.02 7.77053 28.866 6.04344 27.4112 4.58866C25.9564 3.13388 24.2293 1.97988 22.3285 1.19255C21.0452 0.660984 19.6997 0.303589 18.3278 0.127488C17.2322 -0.0131405 16.3332 0.895431 16.3332 2L16.3332 13.6667C16.3332 14.7712 17.2286 15.6667 18.3332 15.6667H29.9998Z" fill="#FF5858"/>
<mask id="path-2-inside-1_178_172" fill="white">
<path d="M29.3333 16.3334C30.4379 16.3334 31.3465 17.2324 31.2059 18.328C30.8989 20.7195 30.0426 23.0175 28.693 25.0373C26.9715 27.6137 24.5247 29.6217 21.662 30.8075C18.7993 31.9932 15.6493 32.3035 12.6103 31.699C9.57122 31.0945 6.77968 29.6024 4.58866 27.4114C2.39764 25.2203 0.905532 22.4288 0.301031 19.3898C-0.303471 16.3507 0.0067811 13.2007 1.19255 10.338C2.37833 7.47527 4.38636 5.02847 6.96273 3.307C8.98251 1.95742 11.2805 1.10115 13.6721 0.794166C14.7676 0.653537 15.6667 1.56212 15.6667 2.66669V14.3334C15.6667 15.4379 16.5621 16.3334 17.6667 16.3334H29.3333Z"/>
</mask>
<path d="M29.3333 16.3334C30.4379 16.3334 31.3465 17.2324 31.2059 18.328C30.8989 20.7195 30.0426 23.0175 28.693 25.0373C26.9715 27.6137 24.5247 29.6217 21.662 30.8075C18.7993 31.9932 15.6493 32.3035 12.6103 31.699C9.57122 31.0945 6.77968 29.6024 4.58866 27.4114C2.39764 25.2203 0.905532 22.4288 0.301031 19.3898C-0.303471 16.3507 0.0067811 13.2007 1.19255 10.338C2.37833 7.47527 4.38636 5.02847 6.96273 3.307C8.98251 1.95742 11.2805 1.10115 13.6721 0.794166C14.7676 0.653537 15.6667 1.56212 15.6667 2.66669V14.3334C15.6667 15.4379 16.5621 16.3334 17.6667 16.3334H29.3333Z" stroke="#FF5858" stroke-width="4" mask="url(#path-2-inside-1_178_172)"/>
</svg>
