<svg width="43" height="42" viewBox="0 0 43 42" fill="none" xmlns="http://www.w3.org/2000/svg">
    <path d="M19.1738 5.71338C28.9756 5.71338 36.8477 13.4248 36.8477 22.8472C36.8474 32.2693 28.9754 39.98 19.1738 39.98C9.37227 39.98 1.50026 32.2693 1.5 22.8472C1.5 13.4249 9.37211 5.71341 19.1738 5.71338Z" stroke="#FF5858" stroke-width="3"/>
    <path d="M19.1733 12.8118C24.941 12.8118 29.5435 17.3449 29.5435 22.8469C29.5433 28.3488 24.9409 32.8821 19.1733 32.8821C13.4059 32.8819 8.80433 28.3487 8.8042 22.8469C8.8042 17.3451 13.4059 12.812 19.1733 12.8118Z" stroke="#FF5858" stroke-width="3"/>
    <ellipse cx="19.1736" cy="22.8467" rx="4.56521" ry="4.43651" fill="#FF5858"/>
    <path d="M35.1521 4.65699C34.6956 5.54429 35.1521 7.76255 35.1521 7.76255C35.1521 7.76255 36.4713 9.0935 38.5508 7.76255C39.4804 7.16757 40.2682 6.43473 40.8551 5.80617C41.4567 5.1619 41.1042 4.17748 40.2512 3.95535C39.81 3.84046 39.4627 3.49582 39.3415 3.0563C39.0909 2.14728 37.986 1.79622 37.2851 2.42702C36.3923 3.23058 35.3925 4.18979 35.1521 4.65699Z" fill="#FF5858"/>
    <path d="M19.6304 22.8467L35.1521 7.76255M35.1521 7.76255C35.1521 7.76255 34.6956 5.54429 35.1521 4.65699C35.3925 4.18979 36.3923 3.23058 37.2851 2.42702C37.986 1.79622 39.0909 2.14728 39.3415 3.0563V3.0563C39.4627 3.49582 39.81 3.84046 40.2512 3.95535V3.95535C41.1042 4.17748 41.4567 5.1619 40.8551 5.80617C40.2682 6.43473 39.4804 7.16757 38.5508 7.76255C36.4713 9.0935 35.1521 7.76255 35.1521 7.76255Z" stroke="#FF5858" stroke-width="3"/>
</svg>
