<svg width="24" height="27" viewBox="0 0 24 27" fill="none" xmlns="http://www.w3.org/2000/svg">
<path d="M4.23535 4.26313V22.7368C4.23535 24.3065 5.49949 25.5789 7.05888 25.5789H19.7648C21.3242 25.5789 22.5883 24.3065 22.5883 22.7368V8.80822C22.5883 7.95526 22.2077 7.14739 21.5516 6.60761L16.0268 2.06251C15.5226 1.64765 14.8914 1.42102 14.2401 1.42102H7.05888C5.49949 1.42102 4.23535 2.69347 4.23535 4.26313Z" fill="white" stroke="#009705"/>
<path d="M16 15H2C1.44772 15 1 15.4477 1 16V20C1 20.5523 1.44772 21 2 21H16C16.5523 21 17 20.5523 17 20V16C17 15.4477 16.5523 15 16 15Z" fill="#009705"/>
<path d="M3.40629 16.3635L4.1396 17.6029H4.16801L4.90487 16.3635H5.77312L4.66339 18.1817L5.79798 19.9999H4.91375L4.16801 18.7588H4.1396L3.39386 19.9999H2.51318L3.65132 18.1817L2.53449 16.3635H3.40629ZM6.25963 19.9999V16.3635H7.02845V19.366H8.5874V19.9999H6.25963ZM11.0692 17.4093C11.055 17.2661 10.994 17.1548 10.8863 17.0755C10.7786 16.9962 10.6324 16.9566 10.4477 16.9566C10.3223 16.9566 10.2163 16.9743 10.1299 17.0098C10.0435 17.0442 9.97723 17.0921 9.93106 17.1537C9.88608 17.2152 9.86359 17.2851 9.86359 17.3632C9.86122 17.4283 9.87484 17.4851 9.90443 17.5336C9.9352 17.5822 9.97723 17.6242 10.0305 17.6597C10.0837 17.694 10.1453 17.7242 10.2151 17.7503C10.285 17.7751 10.3595 17.7964 10.4389 17.8142L10.7656 17.8923C10.9242 17.9278 11.0698 17.9752 11.2023 18.0343C11.3349 18.0935 11.4497 18.1663 11.5468 18.2527C11.6439 18.3392 11.719 18.441 11.7723 18.5581C11.8268 18.6753 11.8546 18.8097 11.8558 18.9612C11.8546 19.1837 11.7978 19.3767 11.6853 19.54C11.574 19.7022 11.413 19.8283 11.2023 19.9182C10.9928 20.007 10.7401 20.0514 10.4442 20.0514C10.1506 20.0514 9.89496 20.0064 9.67716 19.9164C9.46054 19.8265 9.29127 19.6933 9.16934 19.5169C9.0486 19.3394 8.98528 19.1198 8.97936 18.8582H9.72332C9.73161 18.9801 9.76653 19.0819 9.82808 19.1636C9.89082 19.2441 9.97427 19.3051 10.0784 19.3465C10.1838 19.3867 10.3027 19.4069 10.4353 19.4069C10.5655 19.4069 10.6786 19.3879 10.7744 19.35C10.8715 19.3122 10.9467 19.2595 10.9999 19.192C11.0532 19.1245 11.0798 19.047 11.0798 18.9594C11.0798 18.8777 11.0556 18.8091 11.007 18.7535C10.9597 18.6978 10.8898 18.6505 10.7975 18.6114C10.7064 18.5723 10.5945 18.5368 10.4619 18.5049L10.066 18.4054C9.75942 18.3309 9.51735 18.2143 9.3398 18.0557C9.16224 17.897 9.07405 17.6834 9.07524 17.4147C9.07405 17.1945 9.13265 17.0021 9.25102 16.8376C9.37057 16.6731 9.53452 16.5446 9.74285 16.4523C9.95118 16.36 10.1879 16.3138 10.4531 16.3138C10.7229 16.3138 10.9585 16.36 11.1597 16.4523C11.3621 16.5446 11.5196 16.6731 11.632 16.8376C11.7445 17.0021 11.8025 17.1927 11.806 17.4093H11.0692ZM13.0938 16.3635L13.8271 17.6029H13.8555L14.5924 16.3635H15.4606L14.3509 18.1817L15.4855 19.9999H14.6012L13.8555 18.7588H13.8271L13.0813 19.9999H12.2007L13.3388 18.1817L12.222 16.3635H13.0938Z" fill="white"/>
</svg>
