<svg width="1853" height="1080" viewBox="0 0 1853 1080" fill="none" xmlns="http://www.w3.org/2000/svg">
<g filter="url(#filter0_f_176_25)">
<path fill-rule="evenodd" clip-rule="evenodd" d="M897.053 25.8562C1045.32 27.8052 1204.09 -23.6895 1332.03 12.0234C1459.71 47.6602 1475.15 131.781 1518.09 199.203C1555.89 258.549 1565.53 318.007 1566.41 380.019C1567.44 452.693 1614.28 534.173 1523.65 592.657C1432.54 651.448 1261.06 671.761 1107.84 675.92C970.334 679.652 855.705 633.905 724.246 614.353C595.769 595.244 430.323 611.485 344.02 562.315C257.647 513.105 334.339 437.267 303.802 374.811C269.042 303.719 126.11 244.381 153.454 172.56C181.691 98.3912 300.069 29.2409 446.353 0.380747C589.002 -27.7624 742.695 23.8271 897.053 25.8562Z" fill="#F6D365"/>
<path fill-rule="evenodd" clip-rule="evenodd" d="M953.655 378.163C1087.11 360.633 1239.21 396.919 1339.65 440.464C1435.48 482.008 1432.4 549.841 1479.38 606.07C1518.33 652.696 1613.56 694.785 1593.03 743.769C1572.35 793.127 1412.56 806.906 1375.4 854.235C1325.09 918.314 1455.99 1006.78 1349.07 1054.47C1253.23 1097.22 1087.2 1049.2 953.655 1042.34C835.177 1036.26 696.26 1052.09 606.743 1016.36C516.139 980.198 565.998 908.484 502.008 862.066C434.378 813.008 267.466 799.211 230.956 743.769C194.203 687.959 225.91 618.65 313.727 576.157C401.876 533.504 571.754 560.29 678.228 527.347C798.401 490.165 813.932 396.516 953.655 378.163Z" fill="#FDA085"/>
<path fill-rule="evenodd" clip-rule="evenodd" d="M1172.47 134.919C1293.07 146.225 1368.52 198.92 1447.57 241.264C1507.48 273.352 1531.74 313.547 1575.12 350.591C1616.51 385.94 1684.91 415.228 1697.57 454.742C1711.01 496.692 1701.32 542.748 1647.89 577.717C1595.29 612.132 1493.32 620.3 1412.7 641.157C1332.07 662.016 1262.29 689.729 1172.47 700.711C1064.23 713.945 938.171 737.069 842.389 710.889C746.207 684.599 773.728 616.003 710.127 574.336C638.965 527.716 463.826 510.947 451.399 454.742C439.316 400.092 590.223 367.527 654.035 320.638C715.967 275.131 728.856 215.88 821.771 182.596C918.839 147.823 1050.83 123.515 1172.47 134.919Z" fill="#FDA085"/>
</g>
<defs>
<filter id="filter0_f_176_25" x="0" y="-158" width="1853" height="1380" filterUnits="userSpaceOnUse" color-interpolation-filters="sRGB">
<feFlood flood-opacity="0" result="BackgroundImageFix"/>
<feBlend mode="normal" in="SourceGraphic" in2="BackgroundImageFix" result="shape"/>
<feGaussianBlur stdDeviation="75" result="effect1_foregroundBlur_176_25"/>
</filter>
</defs>
</svg>
